<?xml version="1.0" ?><svg viewBox="0 0 64 64" xmlns="http://www.w3.org/2000/svg"><defs><style>.cls-1{fill:#e0e9ee;}.cls-2{fill:#d0e1e8;}.cls-3{fill:#f0f4f7;}.cls-4{fill:#efc89d;}.cls-5{fill:#ebb87f;}.cls-6{fill:#748a95;}.cls-7{fill:#617880;}.cls-8{fill:#e5936b;}.cls-9{fill:#172335;}</style></defs><g id="Wizard"><path class="cls-1" d="M12.64,48.42a15,15,0,0,0-3.58,5.17C8.53,54.85,9.67,56,11,56H36c1.37,0,2.51-1.15,2-2.41a15.08,15.08,0,0,0-3.58-5.17Z" id="path57980-6-4"/><path class="cls-2" d="M30.43,48.42A15.08,15.08,0,0,1,34,53.59c.53,1.26-.61,2.41-2,2.41h4c1.37,0,2.51-1.15,2-2.41a15.08,15.08,0,0,0-3.58-5.17Z" id="path110357-7"/><path class="cls-3" d="M33.17,38a9,9,0,0,1,3.76,7c0,3.25-4.56,4.35-9.93,7a6.56,6.56,0,0,1-6.93,0c-5.38-2.7-9.93-3.8-9.93-7a9,9,0,0,1,3.76-7Z" id="path56511-7-8"/><path class="cls-1" d="M29.17,40a9,9,0,0,1,3.76,7c0,1.44-.9,2.46-2.37,3.39,3.67-1.66,6.37-2.89,6.37-5.39a9,9,0,0,0-3.76-7Z" id="path101501-4"/><path class="cls-4" d="M33.47,35.45a17.39,17.39,0,0,1-.85,4.6c-1.64,4.12-5.1,7.77-9.09,7.77s-7.44-3.65-9.08-7.77a16.62,16.62,0,0,1-.85-4.6l9.93-2.64Z" id="path41635-0-5"/><path class="cls-5" d="M30.75,35.45a17.39,17.39,0,0,1-.85,4.6c-1.45,3.64-4.32,6.92-7.73,7.63a6.9,6.9,0,0,0,1.36.14c4,0,7.45-3.65,9.09-7.77a17.39,17.39,0,0,0,.85-4.6Z" id="path92800-3"/><path class="cls-1" d="M29.63,8a1.06,1.06,0,0,0-.35.09l-4.56,2.06a10.9,10.9,0,0,0-5.36,5.31L14.47,26l9,2.46L32.57,26l-4.8-10.18a3.32,3.32,0,0,1,.56-3.65L30.5,9.79A1.06,1.06,0,0,0,29.63,8Z" id="rect49460-5-6"/><path class="cls-6" d="M14.47,26l-2.39,5.14,11.45,2,11.46-2L32.57,26Z" id="path54734-5-1"/><path class="cls-3" d="M26.09,28.54A2.57,2.57,0,1,1,23.52,26,2.57,2.57,0,0,1,26.09,28.54Z" id="path54838-4-0"/><path class="cls-1" d="M8.06,34a4.33,4.33,0,0,1,4.1-2.89H34.91A4.34,4.34,0,0,1,39,34a1.16,1.16,0,0,1-1.23,1.45H9.29A1.15,1.15,0,0,1,8.06,34Z" id="rect40308-61-6"/><path class="cls-2" d="M30.91,31.11A4.34,4.34,0,0,1,35,34a1.16,1.16,0,0,1-1.23,1.45h4A1.16,1.16,0,0,0,39,34a4.34,4.34,0,0,0-4.1-2.89Z" id="path82078-3"/><path class="cls-2" d="M32.57,26l-4.8-10.18a3.32,3.32,0,0,1,.56-3.65L30.5,9.79A1.07,1.07,0,0,0,29.8,8h-.17a1.06,1.06,0,0,0-.35.09L26.77,9.23a1.09,1.09,0,0,1-.27.56l-2.17,2.35a3.32,3.32,0,0,0-.56,3.65L28.57,26Z" id="path84713-2"/><path class="cls-7" d="M35,31.11,32.57,26h-4L31,31.11Z" id="path84715-0"/><path class="cls-3" d="M21.43,42.22a2.22,2.22,0,0,0,0,.37,2.13,2.13,0,1,0,4.26,0h0a2.22,2.22,0,0,0,0-.37l-.79-1.81L22.6,40.1Z" id="path97081-1"/><path class="cls-6" d="M22,38a2.2,2.2,0,0,0-1.72.93c-1,1.51-2.73,0-2.73,0s.52,2.89,2.7,3.29a3.46,3.46,0,0,0,2.55-.35,1.14,1.14,0,0,1,1.44,0,3.46,3.46,0,0,0,2.55.35c2.18-.4,2.71-3.29,2.71-3.29s-1.69,1.54-2.73,0A2.19,2.19,0,0,0,24.45,38a3.78,3.78,0,0,1-1.83,0A2.48,2.48,0,0,0,22,38Z" id="path93399-9"/><path class="cls-8" d="M47.39,20.07a2.2,2.2,0,0,1,2.4.19A7.86,7.86,0,0,1,51.93,22l-.41,2.45-1.9,1.65a2,2,0,0,0-.53.72L42.8,41.49a2.1,2.1,0,0,0-.16.69L42.06,53.9a2,2,0,0,0,4,.21l.57-11.37,6-13.92L54.68,27a2,2,0,0,0,.67-1.18c.64-3.89.64-3.8.65-4a4.55,4.55,0,0,0-.13-.93,4.27,4.27,0,0,0-.62-1.16,11.7,11.7,0,0,0-3.33-2.85,6.45,6.45,0,0,0-1.66-.75,6.47,6.47,0,0,0-6.6,1.8,3.09,3.09,0,0,0-1.06,2.29,7.1,7.1,0,0,1-.3,1.12c-.17.46-.33.79-.33.79a2,2,0,0,0,0,1.66l.78,1.78A2,2,0,1,0,46.39,24L46,23c0-.12,0-.11.1-.25a7,7,0,0,0,.55-2.24A4.8,4.8,0,0,0,47.39,20.07Z" id="path344478-2"/><path class="cls-9" d="M38.71,55.63a2.56,2.56,0,0,0,.22-2.43A18.41,18.41,0,0,0,36,48.54,4.39,4.39,0,0,0,37.93,45a9.79,9.79,0,0,0-3.69-7.43c0-.34.1-.7.13-1.07h3.41a2.36,2.36,0,0,0,1.92-1A2,2,0,0,0,40,33.67a5.33,5.33,0,0,0-4.3-3.51l-7-14.8a2.29,2.29,0,0,1,.4-2.54l2.16-2.35a2.06,2.06,0,0,0-2.37-3.28L24.31,9.25a11.84,11.84,0,0,0-5.85,5.8h0l-7,15.11a5.35,5.35,0,0,0-4.29,3.51,2,2,0,0,0,.25,1.82,2.35,2.35,0,0,0,1.92,1h3.4c0,.37.09.73.13,1.06A9.87,9.87,0,0,0,9.14,45a4.41,4.41,0,0,0,1.93,3.59,18.6,18.6,0,0,0-2.94,4.67,2.54,2.54,0,0,0,.23,2.42A3.21,3.21,0,0,0,11,57H36A3.22,3.22,0,0,0,38.71,55.63ZM35.93,45c0,1.78-2.12,2.82-5.86,4.51-1.07.48-2.28,1-3.52,1.65a8.67,8.67,0,0,1-2,.76V48.75c4.15-.56,7.47-4.46,9-8.33.07-.19.13-.41.2-.62A7.56,7.56,0,0,1,35.93,45ZM15.11,27h5.22A3.57,3.57,0,0,0,20,28.54a3.63,3.63,0,0,0,.38,1.57H13.65Zm18.3,3.14h-6.7a3.63,3.63,0,0,0,.38-1.57A3.57,3.57,0,0,0,26.71,27h5.22Zm-8.32-1.57A1.57,1.57,0,1,1,23.52,27,1.58,1.58,0,0,1,25.09,28.54ZM20.27,15.89h0a9.85,9.85,0,0,1,4.87-4.82L29.73,9l0,.11L27.6,11.46a4.25,4.25,0,0,0-.73,4.75L31,25H16ZM9,34.34H9a3.33,3.33,0,0,1,3.14-2.22H34.92a3.34,3.34,0,0,1,3.15,2.21.34.34,0,0,1-.29.13H9.29A.39.39,0,0,1,9,34.34Zm23.37,2.11a14,14,0,0,1-.68,3.23c-1.42,3.55-4.49,7.14-8.16,7.14s-6.74-3.59-8.15-7.14a13.06,13.06,0,0,1-.68-3.23Zm-19,3.35c.06.21.13.43.2.62,1.54,3.87,4.87,7.77,9,8.33v3.12a9,9,0,0,1-2-.76c-1.23-.62-2.44-1.17-3.51-1.65-3.74-1.69-5.86-2.73-5.86-4.51A7.56,7.56,0,0,1,13.32,39.8ZM10,54.53A.54.54,0,0,1,10,54a16,16,0,0,1,2.79-4.33c1,.55,2.17,1.07,3.41,1.64s2.24,1,3.44,1.61A8.69,8.69,0,0,0,23.53,54a8.73,8.73,0,0,0,3.92-1.09c1.2-.6,2.34-1.12,3.44-1.61s2.4-1.09,3.41-1.64A16,16,0,0,1,37.09,54a.54.54,0,0,1-.05.55A1.24,1.24,0,0,1,36,55H11A1.23,1.23,0,0,1,10,54.53Z"/><path class="cls-9" d="M20.08,43.12a2.45,2.45,0,0,0,.38,0,3.13,3.13,0,0,0,6.15,0c.12,0,.24,0,.37,0,2.83-.52,3.48-3.95,3.51-4.1a1,1,0,0,0-.5-1,1,1,0,0,0-1.16.13,1.56,1.56,0,0,1-.94.43s-.14,0-.29-.23a3.18,3.18,0,0,0-3.4-1.26,2.72,2.72,0,0,1-1.33,0A2.73,2.73,0,0,0,22,37h0a3.16,3.16,0,0,0-2.5,1.35c-.15.21-.25.23-.29.23a1.59,1.59,0,0,1-.94-.43A1,1,0,0,0,17.08,38a1,1,0,0,0-.5,1.05C16.6,39.17,17.25,42.6,20.08,43.12Zm3.45.6a1.13,1.13,0,0,1-1-.7,3.53,3.53,0,0,0,.88-.4.5.5,0,0,1,.16-.09.56.56,0,0,1,.16.08,3.46,3.46,0,0,0,.89.42A1.16,1.16,0,0,1,23.53,43.72Zm-2.42-4.27A1.2,1.2,0,0,1,22,39a1.15,1.15,0,0,1,.33,0,4.83,4.83,0,0,0,2.33,0,1.18,1.18,0,0,1,1.25.46,2.4,2.4,0,0,0,1.71,1.08,1.87,1.87,0,0,1-1,.63,2.52,2.52,0,0,1-1.81-.2,2.13,2.13,0,0,0-2.56,0,2.55,2.55,0,0,1-1.81.2,1.88,1.88,0,0,1-1-.63A2.37,2.37,0,0,0,21.11,39.45Z"/><path class="cls-9" d="M56.06,19.13a12.54,12.54,0,0,0-3.6-3.1,7.54,7.54,0,0,0-7.2-.48,7.33,7.33,0,0,0-2.36,1.72,4,4,0,0,0-1.3,2.84,7.16,7.16,0,0,1-.24.87c-.15.4-.29.7-.29.71a3,3,0,0,0,0,2.48L41.8,26a3,3,0,0,0,1.65,1.6,3,3,0,0,0,3.86-4L47,23a8.9,8.9,0,0,0,.51-1.83l.27-.14h0a1.24,1.24,0,0,1,1.45.12,9.91,9.91,0,0,1,1.6,1.21l-.27,1.62L49,25.34a3,3,0,0,0-.8,1.09L41.88,41.1a3.09,3.09,0,0,0-.24,1l-.58,11.72A3,3,0,0,0,43.9,57h.15a3,3,0,0,0,3-2.84L47.61,43l5.81-13.55,1.92-1.66a3,3,0,0,0,1-1.78c.68-4.1.65-3.79.67-4.2a4.91,4.91,0,0,0-.18-1.21A5,5,0,0,0,56.06,19.13Zm-1.7,6.53a1,1,0,0,1-.33.59l-2.09,1.81a1,1,0,0,0-.27.36l-6,13.92a.85.85,0,0,0-.08.35l-.57,11.36a1,1,0,0,1-1,1,1,1,0,0,1-.69-.32,1,1,0,0,1-.26-.73l.59-11.72a.81.81,0,0,1,.08-.34L50,27.22a1,1,0,0,1,.27-.37l1.89-1.64a1,1,0,0,0,.34-.59l.4-2.46a1,1,0,0,0-.19-.77,9.38,9.38,0,0,0-2.4-2,3.5,3.5,0,0,0-1.89-.61,3.42,3.42,0,0,0-1.47.37c-.28.13-.5.28-.6.33a1,1,0,0,0-.76.93,6.23,6.23,0,0,1-.47,1.91c-.05.1-.15.35-.11.25a1,1,0,0,0,0,.77l.44,1A1,1,0,0,1,45,25.69a1,1,0,0,1-1.32-.52l-.77-1.79a1,1,0,0,1,0-.83s.17-.37.36-.88a7.42,7.42,0,0,0,.36-1.43,2.16,2.16,0,0,1,.8-1.65A5.52,5.52,0,0,1,50,17.08a5.42,5.42,0,0,1,1.41.64,10.85,10.85,0,0,1,3,2.59,3.16,3.16,0,0,1,.47.88,3.33,3.33,0,0,1,.09.57C55,21.85,55.09,21.25,54.36,25.66Z"/></g></svg>